<svg width="751.71376953125px" height="180.2px" xmlns="http://www.w3.org/2000/svg" viewBox="-125.85688476562501 -15.099999999999994 751.71376953125 180.2" style="background: none;" preserveAspectRatio="xMidYMid"><defs><linearGradient id="editing-outline-gradient" x1="-0.39879404629916704" x2="1.398794046299167" y1="0.061628853210922596" y2="0.9383711467890774"><stop offset="0" stop-color="#e4812f"></stop><stop offset="1" stop-color="#ed7b1c"></stop></linearGradient><filter id="editing-outline" x="-100%" y="-100%" width="300%" height="300%"><feMorphology in="SourceGraphic" operator="dilate" radius="5" result="outline"></feMorphology><feComposite operator="out" in="outline" in2="SourceAlpha"></feComposite></filter></defs><g filter="url(#editing-outline)"><g transform="translate(-16.64151906967163, 110.44999885559082)"><path d="M10.30 0L-1.31 0L16.97-66.66L38.08-66.66L42.72-28.58L61.51-66.66L79.18-66.66L81.00-16.77L81.00-16.77Q81.41-6.87 86.25-3.84L86.25-3.84L86.25-3.84Q85.14-1.82 81.91 0.10L81.91 0.10L81.91 0.10Q78.68 2.02 74.39 2.02L74.39 2.02L74.39 2.02Q70.09 2.02 67.57 0.81L67.57 0.81L67.57 0.81Q65.04-0.40 63.63-2.42L63.63-2.42L63.63-2.42Q61.11-6.06 61.11-13.03L61.11-13.03L61.11-44.24L41.21 0L28.68 0L21.61-45.35L10.30 0ZM92.52-14.95L92.52-14.95L92.52-14.95Q92.52-18.89 93.53-23.94L93.53-23.94L101.71-66.66L124.03-66.66L115.95-23.63L115.95-23.63Q115.04-18.89 115.04-15.40L115.04-15.40L115.04-15.40Q115.04-11.92 116.50-10.10L116.50-10.10L116.50-10.10Q117.97-8.28 120.70-8.28L120.70-8.28L120.70-8.28Q123.42-8.28 125.14-8.99L125.14-8.99L125.14-8.99Q126.86-9.70 128.27-11.41L128.27-11.41L128.27-11.41Q131.00-14.85 132.71-23.63L132.71-23.63L140.90-66.66L156.15-66.66L148.07-23.74L148.07-23.74Q145.24-9.39 137.46-3.64L137.46-3.64L137.46-3.64Q129.89 2.02 114.94 2.02L114.94 2.02L114.94 2.02Q103.73 2.02 97.77-2.83L97.77-2.83L97.77-2.83Q92.52-7.07 92.52-14.95ZM197.56-46.66L197.56-46.66L197.56-46.66Q199.07-49.69 199.07-52.52L199.07-52.52L199.07-52.52Q199.07-55.35 198.77-56.91L198.77-56.91L198.77-56.91Q198.47-58.48 197.76-59.69L197.76-59.69L197.76-59.69Q196.24-62.32 193.21-62.32L193.21-62.32L193.21-62.32Q189.48-62.32 186.45-59.59L186.45-59.59L186.45-59.59Q183.21-56.76 183.21-52.32L183.21-52.32L183.21-52.32Q183.21-49.49 185.18-47.32L185.18-47.32L185.18-47.32Q187.15-45.15 190.18-43.13L190.18-43.13L190.18-43.13Q193.21-41.11 196.65-39.09L196.65-39.09L196.65-39.09Q200.08-37.07 203.11-34.64L203.11-34.64L203.11-34.64Q210.08-29.09 210.08-21.61L210.08-21.61L210.08-21.61Q210.08-16.56 207.40-12.27L207.40-12.27L207.40-12.27Q204.73-7.98 200.28-4.85L200.28-4.85L200.28-4.85Q190.59 2.02 177.76 2.02L177.76 2.02L177.76 2.02Q167.36 2.02 162.00-1.36L162.00-1.36L162.00-1.36Q156.65-4.75 156.65-9.90L156.65-9.90L156.65-9.90Q156.65-19.09 163.82-21.41L163.82-21.41L163.82-21.41Q165.84-22.12 168.92-22.12L168.92-22.12L168.92-22.12Q172.00-22.12 175.54-20.81L175.54-20.81L175.54-20.81Q173.92-16.67 173.92-12.93L173.92-12.93L173.92-12.93Q173.92-4.85 179.68-4.85L179.68-4.85L179.68-4.85Q183.42-4.85 186.50-7.58L186.50-7.58L186.50-7.58Q189.58-10.30 189.58-13.38L189.58-13.38L189.58-13.38Q189.58-16.46 187.61-18.69L187.61-18.69L187.61-18.69Q185.64-20.91 182.71-22.67L182.71-22.67L182.71-22.67Q179.78-24.44 176.40-26.16L176.40-26.16L176.40-26.16Q173.01-27.88 170.08-30.30L170.08-30.30L170.08-30.30Q163.22-35.86 163.22-44.74L163.22-44.74L163.22-44.74Q163.22-50.50 166.04-54.99L166.04-54.99L166.04-54.99Q168.87-59.49 173.42-62.52L173.42-62.52L173.42-62.52Q182.51-68.68 193.67-68.68L193.67-68.68L193.67-68.68Q204.83-68.68 210.23-65.35L210.23-65.35L210.23-65.35Q215.64-62.01 215.64-56.36L215.64-56.36L215.64-56.36Q215.64-51.41 211.80-48.28L211.80-48.28L211.80-48.28Q208.46-45.65 204.42-45.65L204.42-45.65L204.42-45.65Q200.38-45.65 197.56-46.66ZM225.84-49.19L225.84-49.19L225.84-49.19Q222.40-51.81 222.40-57.42L222.40-57.42L222.40-57.42Q222.40-63.02 226.09-65.95L226.09-65.95L226.09-65.95Q229.78-68.88 236.14-68.88L236.14-68.88L236.14-68.88Q240.18-68.88 249.77-67.47L249.77-67.47L256.64-66.46L256.64-66.46Q260.08-66.05 263.66-66.05L263.66-66.05L263.66-66.05Q267.25-66.05 269.67-67.57L269.67-67.57L269.67-67.57Q273.31-64.34 273.31-59.69L273.31-59.69L273.31-59.69Q273.31-55.05 269.17-51.71L269.17-51.71L269.17-51.71Q264.92-48.18 259.47-48.18L259.47-48.18L259.47-48.18Q256.84-48.18 252.60-48.88L252.60-48.88L252.60-48.88Q247.65-33.33 247.65-22.52L247.65-22.52L247.65-22.52Q247.65-11.72 253.11-6.06L253.11-6.06L253.11-6.06Q250.58-1.52 246.84 0.25L246.84 0.25L246.84 0.25Q243.11 2.02 237.50 2.02L237.50 2.02L237.50 2.02Q231.90 2.02 228.41-1.06L228.41-1.06L228.41-1.06Q224.93-4.14 224.93-10.50L224.93-10.50L224.93-10.50Q224.93-17.88 228.97-30.00L228.97-30.00L228.97-30.00Q233.01-42.02 239.07-51.21L239.07-51.21L239.07-51.21Q236.14-51.51 233.11-51.51L233.11-51.51L233.11-51.51Q226.85-51.51 225.84-49.19ZM316.03-53.53L316.03-53.53L316.03-53.53Q307.85-53.53 301.89-56.26L301.89-56.26L298.66-39.90L318.15-39.90L318.15-39.90Q318.15-34.54 315.47-31.16L315.47-31.16L315.47-31.16Q312.80-27.78 307.95-27.78L307.95-27.78L307.95-27.78Q302.70-27.78 297.85-29.69L297.85-29.69L297.85-29.69Q296.84-30.10 296.74-30.20L296.74-30.20L290.98 0L268.96 0L281.79-66.66L326.84-66.66L326.84-66.66Q326.84-60.50 323.96-57.01L323.96-57.01L323.96-57.01Q321.08-53.53 316.03-53.53ZM325.83-24.64L325.83-24.64L325.83-24.64Q325.83-43.73 335.72-55.75L335.72-55.75L335.72-55.75Q346.23-68.78 364.51-68.78L364.51-68.78L364.51-68.78Q377.74-68.78 384.41-62.37L384.41-62.37L384.41-62.37Q391.07-55.95 391.07-42.42L391.07-42.42L391.07-42.42Q391.07-21.82 380.57-9.80L380.57-9.80L380.57-9.80Q370.17 2.02 352.69 2.02L352.69 2.02L352.69 2.02Q339.06 2.02 332.44-4.80L332.44-4.80L332.44-4.80Q325.83-11.62 325.83-24.64ZM352.39-45.55L352.39-45.55L352.39-45.55Q347.84-27.37 347.84-13.03L347.84-13.03L347.84-13.03Q347.84-9.60 349.01-7.37L349.01-7.37L349.01-7.37Q350.17-5.15 353.25-5.15L353.25-5.15L353.25-5.15Q356.33-5.15 358.25-6.62L358.25-6.62L358.25-6.62Q360.17-8.08 361.68-11.41L361.68-11.41L361.68-11.41Q364.11-16.87 366.38-28.43L366.38-28.43L366.38-28.43Q368.65-40.00 368.85-44.79L368.85-44.79L368.85-44.79Q369.05-49.59 369.05-53.23L369.05-53.23L369.05-53.23Q369.05-56.86 367.94-59.19L367.94-59.19L367.94-59.19Q366.83-61.51 363.85-61.51L363.85-61.51L363.85-61.51Q360.87-61.51 358.85-59.69L358.85-59.69L358.85-59.69Q355.12-56.26 352.39-45.55ZM397.54-24.64L397.54-24.64L397.54-24.64Q397.54-43.73 407.43-55.75L407.43-55.75L407.43-55.75Q417.94-68.78 436.22-68.78L436.22-68.78L436.22-68.78Q449.45-68.78 456.12-62.37L456.12-62.37L456.12-62.37Q462.78-55.95 462.78-42.42L462.78-42.42L462.78-42.42Q462.78-21.82 452.28-9.80L452.28-9.80L452.28-9.80Q441.88 2.02 424.40 2.02L424.40 2.02L424.40 2.02Q410.77 2.02 404.15-4.80L404.15-4.80L404.15-4.80Q397.54-11.62 397.54-24.64ZM424.10-45.55L424.10-45.55L424.10-45.55Q419.55-27.37 419.55-13.03L419.55-13.03L419.55-13.03Q419.55-9.60 420.72-7.37L420.72-7.37L420.72-7.37Q421.88-5.15 424.96-5.15L424.96-5.15L424.96-5.15Q428.04-5.15 429.96-6.62L429.96-6.62L429.96-6.62Q431.88-8.08 433.39-11.41L433.39-11.41L433.39-11.41Q435.82-16.87 438.09-28.43L438.09-28.43L438.09-28.43Q440.36-40.00 440.56-44.79L440.56-44.79L440.56-44.79Q440.76-49.59 440.76-53.23L440.76-53.23L440.76-53.23Q440.76-56.86 439.65-59.19L439.65-59.19L439.65-59.19Q438.54-61.51 435.56-61.51L435.56-61.51L435.56-61.51Q432.58-61.51 430.56-59.69L430.56-59.69L430.56-59.69Q426.83-56.26 424.10-45.55ZM533.28-41.91L533.28-41.91L533.28-41.91Q533.28 1.11 486.62 1.11L486.62 1.11L486.62 1.11Q479.14 1.11 466.82-0.71L466.82-0.71L478.13-60.40L478.13-60.40Q478.94-64.44 479.45-66.76L479.45-66.76L479.45-66.76Q494.80-67.87 501.62-67.87L501.62-67.87L501.62-67.87Q508.43-67.87 514.70-66.46L514.70-66.46L514.70-66.46Q520.96-65.04 525.10-61.91L525.10-61.91L525.10-61.91Q533.28-55.75 533.28-41.91ZM512.47-45.65L512.47-45.65L512.47-45.65Q512.47-60.70 501.67-60.70L501.67-60.70L500.66-60.70L500.66-60.70Q500.15-60.70 499.65-60.60L499.65-60.60L489.24-6.36L489.24-6.36Q489.65-6.16 490.05-6.16L490.05-6.16L490.86-6.16L490.86-6.16Q494.60-6.16 498.49-8.48L498.49-8.48L498.49-8.48Q502.37-10.81 505.40-15.55L505.40-15.55L505.40-15.55Q512.47-26.56 512.47-45.65Z" fill="url(#editing-outline-gradient)"></path></g></g><style>text {
  font-size: 64px;
  font-family: Arial Black;
  dominant-baseline: central;
  text-anchor: middle;
}</style></svg>