<svg width="483.64703369140625px" 
height="121.39999999999999px" xmlns="http://www.w3.org/2000/svg" 
viewBox="8.176483154296875 14.300000000000004 483.64703369140625 121.39999999999999" 
style="background: transparent" preserveAspectRatio="xMidYMid"><defs><linearGradient id="editing-outline-gradient" x1="-0.41354545764260087" x2="1.4135454576426008" y1="0.09326335692419985" y2="0.9067366430758002"><stop offset="0" stop-color="#e4812f"></stop><stop offset="1" stop-color="#ed7b1c"></stop></linearGradient><filter id="editing-outline" x="-100%" y="-100%" width="300%" height="300%"><feMorphology in="SourceGraphic" operator="dilate" radius="1" result="outline"></feMorphology><feComposite operator="out" in="outline" in2="SourceAlpha"></feComposite></filter></defs><g filter="url(#editing-outline)"><g transform="translate(81.03899204730988, 97.46500015258789)"><path d="M6.53 0L-0.83 0L10.75-42.24L24.13-42.24L27.07-18.11L38.98-42.24L50.18-42.24L51.33-10.62L51.33-10.62Q51.58-4.35 54.66-2.43L54.66-2.43L54.66-2.43Q53.95-1.15 51.90 0.06L51.90 0.06L51.90 0.06Q49.86 1.28 47.14 1.28L47.14 1.28L47.14 1.28Q44.42 1.28 42.82 0.51L42.82 0.51L42.82 0.51Q41.22-0.26 40.32-1.54L40.32-1.54L40.32-1.54Q38.72-3.84 38.72-8.26L38.72-8.26L38.72-28.03L26.11 0L18.18 0L13.70-28.74L6.53 0ZM58.62-9.47L58.62-9.47L58.62-9.47Q58.62-11.97 59.26-15.17L59.26-15.17L64.45-42.24L78.59-42.24L73.47-14.98L73.47-14.98Q72.90-11.97 72.90-9.76L72.90-9.76L72.90-9.76Q72.90-7.55 73.82-6.40L73.82-6.40L73.82-6.40Q74.75-5.25 76.48-5.25L76.48-5.25L76.48-5.25Q78.21-5.25 79.30-5.70L79.30-5.70L79.30-5.70Q80.38-6.14 81.28-7.23L81.28-7.23L81.28-7.23Q83.01-9.41 84.10-14.98L84.10-14.98L89.28-42.24L98.94-42.24L93.82-15.04L93.82-15.04Q92.03-5.95 87.10-2.30L87.10-2.30L87.10-2.30Q82.30 1.28 72.83 1.28L72.83 1.28L72.83 1.28Q65.73 1.28 61.95-1.79L61.95-1.79L61.95-1.79Q58.62-4.48 58.62-9.47ZM125.18-29.57L125.18-29.57L125.18-29.57Q126.14-31.49 126.14-33.28L126.14-33.28L126.14-33.28Q126.14-35.07 125.95-36.06L125.95-36.06L125.95-36.06Q125.76-37.06 125.31-37.82L125.31-37.82L125.31-37.82Q124.35-39.49 122.43-39.49L122.43-39.49L122.43-39.49Q120.06-39.49 118.14-37.76L118.14-37.76L118.14-37.76Q116.10-35.97 116.10-33.15L116.10-33.15L116.10-33.15Q116.10-31.36 117.34-29.98L117.34-29.98L117.34-29.98Q118.59-28.61 120.51-27.33L120.51-27.33L120.51-27.33Q122.43-26.05 124.61-24.77L124.61-24.77L124.61-24.77Q126.78-23.49 128.70-21.95L128.70-21.95L128.70-21.95Q133.12-18.43 133.12-13.70L133.12-13.70L133.12-13.70Q133.12-10.50 131.42-7.78L131.42-7.78L131.42-7.78Q129.73-5.06 126.91-3.07L126.91-3.07L126.91-3.07Q120.77 1.28 112.64 1.28L112.64 1.28L112.64 1.28Q106.05 1.28 102.66-0.86L102.66-0.86L102.66-0.86Q99.26-3.01 99.26-6.27L99.26-6.27L99.26-6.27Q99.26-12.10 103.81-13.57L103.81-13.57L103.81-13.57Q105.09-14.02 107.04-14.02L107.04-14.02L107.04-14.02Q108.99-14.02 111.23-13.18L111.23-13.18L111.23-13.18Q110.21-10.56 110.21-8.19L110.21-8.19L110.21-8.19Q110.21-3.07 113.86-3.07L113.86-3.07L113.86-3.07Q116.22-3.07 118.18-4.80L118.18-4.80L118.18-4.80Q120.13-6.53 120.13-8.48L120.13-8.48L120.13-8.48Q120.13-10.43 118.88-11.84L118.88-11.84L118.88-11.84Q117.63-13.25 115.78-14.37L115.78-14.37L115.78-14.37Q113.92-15.49 111.78-16.58L111.78-16.58L111.78-16.58Q109.63-17.66 107.78-19.20L107.78-19.20L107.78-19.20Q103.42-22.72 103.42-28.35L103.42-28.35L103.42-28.35Q103.42-32 105.22-34.85L105.22-34.85L105.22-34.85Q107.01-37.70 109.89-39.62L109.89-39.62L109.89-39.62Q115.65-43.52 122.72-43.52L122.72-43.52L122.72-43.52Q129.79-43.52 133.22-41.41L133.22-41.41L133.22-41.41Q136.64-39.30 136.64-35.71L136.64-35.71L136.64-35.71Q136.64-32.58 134.21-30.59L134.21-30.59L134.21-30.59Q132.10-28.93 129.54-28.93L129.54-28.93L129.54-28.93Q126.98-28.93 125.18-29.57ZM143.10-31.17L143.10-31.17L143.10-31.17Q140.93-32.83 140.93-36.38L140.93-36.38L140.93-36.38Q140.93-39.94 143.26-41.79L143.26-41.79L143.26-41.79Q145.60-43.65 149.63-43.65L149.63-43.65L149.63-43.65Q152.19-43.65 158.27-42.75L158.27-42.75L162.62-42.11L162.62-42.11Q164.80-41.86 167.07-41.86L167.07-41.86L167.07-41.86Q169.34-41.86 170.88-42.82L170.88-42.82L170.88-42.82Q173.18-40.77 173.18-37.82L173.18-37.82L173.18-37.82Q173.18-34.88 170.56-32.77L170.56-32.77L170.56-32.77Q167.87-30.53 164.42-30.53L164.42-30.53L164.42-30.53Q162.75-30.53 160.06-30.98L160.06-30.98L160.06-30.98Q156.93-21.12 156.93-14.27L156.93-14.27L156.93-14.27Q156.93-7.42 160.38-3.84L160.38-3.84L160.38-3.84Q158.78-0.96 156.42 0.16L156.42 0.16L156.42 0.16Q154.05 1.28 150.50 1.28L150.50 1.28L150.50 1.28Q146.94 1.28 144.74-0.67L144.74-0.67L144.74-0.67Q142.53-2.62 142.53-6.66L142.53-6.66L142.53-6.66Q142.53-11.33 145.09-19.01L145.09-19.01L145.09-19.01Q147.65-26.62 151.49-32.45L151.49-32.45L151.49-32.45Q149.63-32.64 147.71-32.64L147.71-32.64L147.71-32.64Q143.74-32.64 143.10-31.17ZM200.26-33.92L200.26-33.92L200.26-33.92Q195.07-33.92 191.30-35.65L191.30-35.65L189.25-25.28L201.60-25.28L201.60-25.28Q201.60-21.89 199.90-19.74L199.90-19.74L199.90-19.74Q198.21-17.60 195.14-17.60L195.14-17.60L195.14-17.60Q191.81-17.60 188.74-18.82L188.74-18.82L188.74-18.82Q188.10-19.07 188.03-19.14L188.03-19.14L184.38 0L170.43 0L178.56-42.24L207.10-42.24L207.10-42.24Q207.10-38.34 205.28-36.13L205.28-36.13L205.28-36.13Q203.46-33.92 200.26-33.92ZM206.46-15.62L206.46-15.62L206.46-15.62Q206.46-27.71 212.74-35.33L212.74-35.33L212.74-35.33Q219.39-43.58 230.98-43.58L230.98-43.58L230.98-43.58Q239.36-43.58 243.58-39.52L243.58-39.52L243.58-39.52Q247.81-35.46 247.81-26.88L247.81-26.88L247.81-26.88Q247.81-13.82 241.15-6.21L241.15-6.21L241.15-6.21Q234.56 1.28 223.49 1.28L223.49 1.28L223.49 1.28Q214.85 1.28 210.66-3.04L210.66-3.04L210.66-3.04Q206.46-7.36 206.46-15.62ZM223.30-28.86L223.30-28.86L223.30-28.86Q220.42-17.34 220.42-8.26L220.42-8.26L220.42-8.26Q220.42-6.08 221.15-4.67L221.15-4.67L221.15-4.67Q221.89-3.26 223.84-3.26L223.84-3.26L223.84-3.26Q225.79-3.26 227.01-4.19L227.01-4.19L227.01-4.19Q228.22-5.12 229.18-7.23L229.18-7.23L229.18-7.23Q230.72-10.69 232.16-18.02L232.16-18.02L232.16-18.02Q233.60-25.34 233.73-28.38L233.73-28.38L233.73-28.38Q233.86-31.42 233.86-33.73L233.86-33.73L233.86-33.73Q233.86-36.03 233.15-37.50L233.15-37.50L233.15-37.50Q232.45-38.98 230.56-38.98L230.56-38.98L230.56-38.98Q228.67-38.98 227.39-37.82L227.39-37.82L227.39-37.82Q225.02-35.65 223.30-28.86ZM251.90-15.62L251.90-15.62L251.90-15.62Q251.90-27.71 258.18-35.33L258.18-35.33L258.18-35.33Q264.83-43.58 276.42-43.58L276.42-43.58L276.42-43.58Q284.80-43.58 289.02-39.52L289.02-39.52L289.02-39.52Q293.25-35.46 293.25-26.88L293.25-26.88L293.25-26.88Q293.25-13.82 286.59-6.21L286.59-6.21L286.59-6.21Q280 1.28 268.93 1.28L268.93 1.28L268.93 1.28Q260.29 1.28 256.10-3.04L256.10-3.04L256.10-3.04Q251.90-7.36 251.90-15.62ZM268.74-28.86L268.74-28.86L268.74-28.86Q265.86-17.34 265.86-8.26L265.86-8.26L265.86-8.26Q265.86-6.08 266.59-4.67L266.59-4.67L266.59-4.67Q267.33-3.26 269.28-3.26L269.28-3.26L269.28-3.26Q271.23-3.26 272.45-4.19L272.45-4.19L272.45-4.19Q273.66-5.12 274.62-7.23L274.62-7.23L274.62-7.23Q276.16-10.69 277.60-18.02L277.60-18.02L277.60-18.02Q279.04-25.34 279.17-28.38L279.17-28.38L279.17-28.38Q279.30-31.42 279.30-33.73L279.30-33.73L279.30-33.73Q279.30-36.03 278.59-37.50L278.59-37.50L278.59-37.50Q277.89-38.98 276-38.98L276-38.98L276-38.98Q274.11-38.98 272.83-37.82L272.83-37.82L272.83-37.82Q270.46-35.65 268.74-28.86ZM337.92-26.56L337.92-26.56L337.92-26.56Q337.92 0.70 308.35 0.70L308.35 0.70L308.35 0.70Q303.62 0.70 295.81-0.45L295.81-0.45L302.98-38.27L302.98-38.27Q303.49-40.83 303.81-42.30L303.81-42.30L303.81-42.30Q313.54-43.01 317.86-43.01L317.86-43.01L317.86-43.01Q322.18-43.01 326.14-42.11L326.14-42.11L326.14-42.11Q330.11-41.22 332.74-39.23L332.74-39.23L332.74-39.23Q337.92-35.33 337.92-26.56ZM324.74-28.93L324.74-28.93L324.74-28.93Q324.74-38.46 317.89-38.46L317.89-38.46L317.25-38.46L317.25-38.46Q316.93-38.46 316.61-38.40L316.61-38.40L310.02-4.03L310.02-4.03Q310.27-3.90 310.53-3.90L310.53-3.90L311.04-3.90L311.04-3.90Q313.41-3.90 315.87-5.38L315.87-5.38L315.87-5.38Q318.34-6.85 320.26-9.86L320.26-9.86L320.26-9.86Q324.74-16.83 324.74-28.93Z" fill="url(#editing-outline-gradient)"></path></g></g><style>text {
  font-size: 200px;
  font-family: Arial Black;
  dominant-baseline: central;
  text-anchor: middle;
}</style></svg>